<svg xmlns="http://www.w3.org/2000/svg" width="1009.544" height="675.719" viewBox="0 0 1009.544 675.719">
  <g id="Grupo_5" data-name="Grupo 5" transform="translate(-35 -272)">
    <g id="Grupo_4" data-name="Grupo 4">
      <path id="Caminho_59" data-name="Caminho 59" d="M681.78,166.43c-64.72-2.24-126.36-23.14-185.22-46S379.4,72.25,316.23,60.14C275.6,52.35,229.13,51.24,196.4,73c-31.51,21-41.69,57.15-47.16,90.72-4.12,25.26-6.54,51.85,4.74,75.5,7.84,16.42,21.74,30.22,31.36,45.95,33.47,54.72,9.81,122.2-26.45,175.63-17,25.06-36.75,49-49.88,75.65S89.81,593.74,101.3,621c11.38,27,38.51,47.24,67.9,61.49,59.69,28.95,130,37.23,198.61,41.93,151.83,10.38,304.46,5.89,456.69,1.38,56.34-1.66,112.92-3.35,168.34-12.06,30.78-4.84,62.55-12.52,84.9-31.06,28.36-23.53,35.39-63.37,16.38-92.87-31.88-49.5-120-61.79-142.31-114.9-12.26-29.24.33-61.8,18.16-88.91,38.24-58.17,102.33-109.2,105.7-175.68,2.32-45.66-28.49-91.39-76.13-113-49.93-22.65-119.18-19.8-156,17.69C805.59,153.57,738.93,168.42,681.78,166.43Z" transform="translate(-60.226 216.967)" fill="#71dfc3" opacity="0.3"/>
      <g id="undraw_Notify_re_65on" transform="translate(145 353.952)">
        <path id="Caminho_32" data-name="Caminho 32" d="M925.563,704.589,903,636.5s24.818,24.818,24.818,45.182l-4.455-47.091s12.727,17.182,11.455,43.273S925.563,704.589,925.563,704.589Z" transform="translate(-205 -193.896)" fill="#71dfc3"/>
        <path id="Caminho_33" data-name="Caminho 33" d="M441.021,642.589,419,576.135s24.222,24.222,24.222,44.1l-4.347-45.959S451.3,591.041,450.053,616.5,441.021,642.589,441.021,642.589Z" transform="translate(-205 -193.896)" fill="#71dfc3"/>
        <path id="Caminho_34" data-name="Caminho 34" d="M784.726,673.255c.038,43.715-86.665,30.268-192.809,30.36S400.381,717.3,400.343,673.587s86.633-53.3,192.777-53.389S784.688,629.54,784.726,673.255Z" transform="translate(-205 -193.896)" fill="#376d6c"/>
        <path id="Caminho_35" data-name="Caminho 35" d="M505.336,420.322H491.459l-6.6-53.525h20.481Z" fill="#fff"/>
        <path id="Caminho_36" data-name="Caminho 36" d="M480.006,416.357h28.3v16.851H464.7v-1.542a15.309,15.309,0,0,1,15.309-15.309Z" fill="#71dfc3"/>
        <path id="Caminho_37" data-name="Caminho 37" d="M607.336,499.322H593.459l-6.6-53.525h20.481Z" fill="#fff"/>
        <path id="Caminho_38" data-name="Caminho 38" d="M582.006,495.357h28.3v16.851H566.7v-1.542a15.309,15.309,0,0,1,15.309-15.309Z" fill="#71dfc3"/>
        <path id="Caminho_39" data-name="Caminho 39" d="M876.345,534.205a10.316,10.316,0,0,0-2.9-15.551l-32.23-131.293-20.608,8.866,38.335,126.949a10.372,10.372,0,0,0,17.4,11.028Z" transform="translate(-205 -193.896)" fill="#fff"/>
        <path id="Caminho_40" data-name="Caminho 40" d="M851.208,268.86a11.382,11.382,0,0,0-17.415,1.152l-49.885,5.727,7.589,19.241,45.368-8.491a11.444,11.444,0,0,0,14.344-17.63Z" transform="translate(-205 -193.896)" fill="#fff"/>
        <path id="Caminho_41" data-name="Caminho 41" d="M769,520.589l21.768,163.374,27.093-5.578S813.877,559.4,827.424,545.06,810,505.589,810,505.589Z" transform="translate(-205 -193.896)" fill="#71dfc3"/>
        <path id="Caminho_42" data-name="Caminho 42" d="M778,475.589l-10,15s-77-32-77,19-4.406,85.609-6,88,18.438,8.594,28,7c0,0,11.8-82.219,11-87,0,0,75.534,37.033,89.877,33.846S831.609,536.964,834,530.589s-1-57-1-57L785.19,459Z" transform="translate(-205 -193.896)" fill="#71dfc3"/>
        <path id="Caminho_43" data-name="Caminho 43" d="M779.349,385.529l-2.85-3.42s-31.924-71.828-19.382-91.21,67.268-22.233,68.978-21.092-4.085,15.943-.094,22.784c0,0-42.394,9.191-45.244,10.331s21.966,43.274,21.966,43.274l-2.85,25.653Z" transform="translate(-205 -193.896)" fill="#376d6c"/>
        <path id="Caminho_44" data-name="Caminho 44" d="M835.216,350.185s-29.643,3.42-30.784,3.42-1.71-7.411-1.71-7.411L776.5,382.108S763.58,486.3,767,484.589s66.505,8.112,67.075,3.551-.57-27.363,1.14-28.5,29.643-71.828,29.643-71.828-2.85-14.822-12.541-19.952S835.216,350.185,835.216,350.185Z" transform="translate(-205 -193.896)" fill="#376d6c"/>
        <path id="Caminho_45" data-name="Caminho 45" d="M855.738,378.118l9.121,9.691s13.552,111.36,6.141,114.78-22,3-22,3L834.645,452.8Z" transform="translate(-205 -193.896)" fill="#376d6c"/>
        <circle id="Elipse_15" data-name="Elipse 15" cx="26.239" cy="26.239" r="26.239" transform="translate(575.491 96.759)" fill="#fff"/>
        <path id="Caminho_46" data-name="Caminho 46" d="M800.573,320.988c-.354-5.444-7.223-5.631-12.679-5.683s-11.978.143-15.065-4.355c-2.04-2.973-1.65-7.1.035-10.288s4.458-5.639,7.185-8c7.041-6.089,14.3-12.129,22.752-16.027s18.36-5.472,27.128-2.344c10.77,3.843,25.329,23.626,26.586,34.992s-3.285,22.953-10.942,31.446-25.182,5.066-36.211,8.088c6.7-9.49,2.285-26.733-8.456-31.164Z" transform="translate(-205 -193.896)" fill="#71dfc3"/>
        <circle id="Elipse_16" data-name="Elipse 16" cx="62.989" cy="62.989" r="62.989" transform="translate(298.732 340.515)" fill="#71dfc3"/>
        <path id="Caminho_47" data-name="Caminho 47" d="M524.656,529.935A45.16,45.16,0,0,1,483.4,503.147L383.449,278.058a59.83,59.83,0,1,1,111.87-41.864L567.7,471.605a45.08,45.08,0,0,1-43.04,58.33Z" transform="translate(-205 -193.896)" fill="#71dfc3"/>
      </g>
    </g>
  </g>
</svg>
