<svg xmlns="http://www.w3.org/2000/svg" width="797.5" height="834.5" viewBox="0 0 797.5 834.5">
  <g id="Grupo_3" data-name="Grupo 3" transform="translate(-141 -363)">
    <g id="undraw_void_3ggu" transform="translate(141 363)">
      <ellipse id="Elipse_17" data-name="Elipse 17" cx="308.5" cy="54.5" rx="308.5" ry="54.5" transform="translate(0 725.5)" fill="#71dfc3"/>
      <circle id="Elipse_18" data-name="Elipse 18" cx="301.5" cy="301.5" r="301.5" transform="translate(194.5)" fill="#376d6c"/>
      <circle id="Elipse_19" data-name="Elipse 19" cx="248.898" cy="248.898" r="248.898" transform="translate(247.102 52.602)" fill="#ddfefb" opacity="0.371"/>
      <circle id="Elipse_20" data-name="Elipse 20" cx="203.994" cy="203.994" r="203.994" transform="translate(292.006 97.506)" fill="#376d6c" opacity="0.523"/>
      <circle id="Elipse_21" data-name="Elipse 21" cx="146.26" cy="146.26" r="146.26" transform="translate(349.74 155.24)" fill="#376d6c"/>
      <path id="Caminho_48" data-name="Caminho 48" d="M398.42,361.232s-23.7,66.722-13.169,90.426,27.216,46.53,27.216,46.53S406.322,365.622,398.42,361.232Z" transform="translate(-201.25 -32.75)" fill="#d0cde1"/>
      <path id="Caminho_49" data-name="Caminho 49" d="M398.42,361.232s-23.7,66.722-13.169,90.426,27.216,46.53,27.216,46.53S406.322,365.622,398.42,361.232Z" transform="translate(-201.25 -32.75)" fill="#71dfc3" opacity="0.593"/>
      <path id="Caminho_50" data-name="Caminho 50" d="M415.1,515.747s-1.756,16.681-2.634,17.558.878,2.634,0,5.268-1.756,6.145,0,7.023-9.657,78.135-9.657,78.135-28.094,36.873-16.681,94.816l3.512,58.821s27.216,1.756,27.216-7.9c0,0-1.756-11.413-1.756-16.681s4.39-5.268,1.756-7.9-2.634-4.39-2.634-4.39,4.39-3.512,3.512-4.39,7.9-63.211,7.9-63.211,9.657-9.657,9.657-14.925V652.7s4.39-11.413,4.39-12.291,23.7-54.431,23.7-54.431l9.657,38.629,10.535,55.309s5.268,50.042,15.8,69.356c0,0,18.436,63.211,18.436,61.455s30.727-6.145,29.849-14.047-18.436-118.52-18.436-118.52l4.39-164.172Z" transform="translate(-201.25 -32.75)" fill="#376d6c"/>
      <path id="Caminho_51" data-name="Caminho 51" d="M391.4,772.978s-23.7,46.53-7.9,48.286,21.948,1.756,28.971-5.268c3.84-3.84,11.615-8.991,17.876-12.873a23.117,23.117,0,0,0,10.969-21.982c-.463-4.3-2.068-7.834-6.019-8.164-10.535-.878-22.826-10.535-22.826-10.535Z" transform="translate(-201.25 -32.75)" fill="#376d6c"/>
      <path id="Caminho_52" data-name="Caminho 52" d="M522.208,807.217s-23.7,46.53-7.9,48.286,21.948,1.756,28.971-5.268c3.84-3.84,11.615-8.991,17.876-12.873a23.117,23.117,0,0,0,10.969-21.982c-.463-4.3-2.068-7.834-6.019-8.164-10.535-.878-22.826-10.535-22.826-10.535Z" transform="translate(-201.25 -32.75)" fill="#376d6c"/>
      <circle id="Elipse_22" data-name="Elipse 22" cx="36.905" cy="36.905" r="36.905" transform="translate(259 178.528)" fill="#ddfefb"/>
      <path id="Caminho_53" data-name="Caminho 53" d="M473.43,260.308s-26.36,48.5-28.469,48.5,47.449,15.816,47.449,15.816,13.707-46.394,15.816-50.612Z" transform="translate(-201.25 -32.75)" fill="#ddfefb"/>
      <path id="Caminho_54" data-name="Caminho 54" d="M513.867,313.385s-52.675-28.971-57.943-28.094-61.455,50.042-60.577,70.234,7.9,53.553,7.9,53.553,2.634,93.06,7.9,93.938-.878,16.681.878,16.681,122.909,0,123.787-2.634S513.867,313.385,513.867,313.385Z" transform="translate(-201.25 -32.75)" fill="#71dfc3"/>
      <path id="Caminho_55" data-name="Caminho 55" d="M543.278,521.892s16.681,50.92,2.634,49.164-20.192-43.9-20.192-43.9Z" transform="translate(-201.25 -32.75)" fill="#ddfefb"/>
      <path id="Caminho_56" data-name="Caminho 56" d="M498.5,310.313s-32.483,7.023-27.216,50.92,14.925,87.792,14.925,87.792L518.7,520.136l3.512,13.169,23.7-6.145L528.353,425.321s-6.145-108.863-14.047-112.374a34,34,0,0,0-15.8-2.634Z" transform="translate(-201.25 -32.75)" fill="#71dfc3"/>
      <path id="Caminho_57" data-name="Caminho 57" d="M277.5,414.958l40.385,71.989L283.86,411.09Z" opacity="0.1"/>
      <path id="Caminho_58" data-name="Caminho 58" d="M533.9,237.316l.122-2.82,5.61,1.4a6.27,6.27,0,0,0-2.514-4.615l5.976-.334a64.477,64.477,0,0,0-43.125-26.651c-12.926-1.873-27.318.838-36.182,10.43-4.3,4.653-7,10.57-8.922,16.607-3.539,11.118-4.26,24.372,3.12,33.409,7.5,9.185,20.6,10.984,32.406,12.121,4.153.4,8.506.772,12.355-.839a29.72,29.72,0,0,0-1.654-13.037,8.687,8.687,0,0,1-.879-4.152c.525-3.512,5.209-4.4,8.728-3.922s7.75,1.2,10.062-1.494c1.593-1.856,1.5-4.559,1.71-7C521.282,239.785,533.836,238.707,533.9,237.316Z" transform="translate(-201.25 -32.75)" fill="#71dfc3"/>
      <circle id="Elipse_23" data-name="Elipse 23" cx="43" cy="43" r="43" transform="translate(516 701.5)" fill="#376d6c"/>
      <circle id="Elipse_24" data-name="Elipse 24" cx="43" cy="43" r="43" transform="translate(11 686.5)" fill="#376d6c"/>
      <circle id="Elipse_25" data-name="Elipse 25" cx="31" cy="31" r="31" transform="translate(23 641.5)" fill="#376d6c"/>
      <circle id="Elipse_26" data-name="Elipse 26" cx="22" cy="22" r="22" transform="translate(32 602.5)" fill="#376d6c"/>
    </g>
    <circle id="Elipse_1" data-name="Elipse 1" cx="25.715" cy="25.715" r="25.715" transform="translate(605.466 727.962)" fill="#ddfefb"/>
    <path id="Caminho_2" data-name="Caminho 2" d="M527.921,220.371a56.143,56.143,0,0,0-55.578,55.173c0,.28-.006,2.248-.006,4.822A14.233,14.233,0,0,0,486.568,294.6h0a14.241,14.241,0,0,0,14.239-14.251c0-1.754,0-2.966,0-3.041a26.993,26.993,0,1,1,41.552,22.724l0,.006s-20.256,13.041-26.432,30.93h.005a39.644,39.644,0,0,0-1.634,11.29c0,1.571.092,15.319.271,26.477a14.671,14.671,0,0,0,14.673,14.434h0A14.676,14.676,0,0,0,543.921,368.4c-.062-10.219-.1-22.118-.1-22.981,0-10.985,10.6-21.929,19.3-29.066A58.541,58.541,0,0,0,583.26,284.3a36.588,36.588,0,0,0,1.054-7.943,55.988,55.988,0,0,0-56.393-55.987Z" transform="translate(102.861 322.631)" fill="#ddfefb"/>
  </g>
</svg>
