<svg xmlns="http://www.w3.org/2000/svg" xmlns:xlink="http://www.w3.org/1999/xlink" width="511.985" height="511.984" viewBox="0 0 511.985 511.984">
  <defs>
    <linearGradient id="linear-gradient" x1="0.5" x2="0.5" y2="0.5" gradientUnits="objectBoundingBox">
      <stop offset="0" stop-color="#56e2c4"/>
      <stop offset="1" stop-color="#3c9e95"/>
    </linearGradient>
  </defs>
  <g id="pokeball-pokemon-svgrepo-com" transform="translate(0 -0.001)">
    <path id="Caminho_1" data-name="Caminho 1" d="M491.859,156.348a256.76,256.76,0,1,0,20.126,99.645A255.186,255.186,0,0,0,491.859,156.348Z" fill="url(#linear-gradient)"/>
    <path id="Caminho_2" data-name="Caminho 2" d="M.1,263.18A255.923,255.923,0,0,0,437.018,437,255.26,255.26,0,0,0,511.891,263.18Z" fill="#e6e9ed"/>
    <path id="Caminho_3" data-name="Caminho 3" d="M510.765,281.211q1.218-12.516,1.219-25.218a261.645,261.645,0,0,0-1.531-28.289c-12.719,1.961-30.984,4.516-54,7.054a1853.094,1853.094,0,0,1-200.463,10.57,1852.888,1852.888,0,0,1-200.455-10.57c-23.022-2.539-41.28-5.093-54-7.054A259.634,259.634,0,0,0,0,255.993q0,12.7,1.219,25.218c41.53,6.25,133.027,17.436,254.773,17.436S469.234,287.461,510.765,281.211Z" fill="#2a6f6c"/>
    <path id="Caminho_4" data-name="Caminho 4" d="M309.334,266.656a53.338,53.338,0,1,1-53.342-53.327A53.342,53.342,0,0,1,309.334,266.656Z" fill="#e6e9ed"/>
    <path id="Caminho_5" data-name="Caminho 5" d="M255.992,170.66a95.993,95.993,0,1,0,96,96A96.107,96.107,0,0,0,255.992,170.66Zm0,138.675a42.671,42.671,0,1,1,42.654-42.678A42.727,42.727,0,0,1,255.992,309.335Z" fill="#2a6f6c"/>
    <path id="Caminho_6" data-name="Caminho 6" d="M491.859,156.348A255.785,255.785,0,0,0,255.992,0q-5.355,0-10.664.219A255.745,255.745,0,0,1,490.639,255.994,255.773,255.773,0,0,1,245.328,511.766q5.309.211,10.664.219A256.119,256.119,0,0,0,491.859,156.348Z" fill="#fff" opacity="0.2"/>
    <path id="Caminho_7" data-name="Caminho 7" d="M20.125,355.645A255.81,255.81,0,0,0,255.993,511.984q5.355,0,10.664-.219A255.907,255.907,0,0,1,96.31,74.983,255.16,255.16,0,0,1,266.656.219Q261.348.009,255.992,0A256.125,256.125,0,0,0,20.125,355.645Z" opacity="0.1"/>
  </g>
</svg>
